<?xml version="1.0" encoding="iso-8859-1"?>
<!-- Generator: Adobe Illustrator 19.0.0, SVG Export Plug-In . SVG Version: 6.00 Build 0)  -->
<svg xmlns="http://www.w3.org/2000/svg" xmlns:xlink="http://www.w3.org/1999/xlink" version="1.1" id="Layer_1" x="0px" y="0px" viewBox="0 0 512 512" style="enable-background:new 0 0 512 512;" xml:space="preserve" width="512" height="512">
<g>
	<g>
		<path style="fill:#485C70;" d="M489.915,318.125h-95.423l-46.655-22.918l-46.655,22.918H171.53l-24.228,26.847l24.228,26.847    h318.385c8.055,0,14.585-6.53,14.585-14.585V332.71C504.5,324.655,497.97,318.125,489.915,318.125z"/>
		<path style="fill:#F9EE80;" d="M57.593,371.819H171.53V106.31c0-8.74-7.085-15.825-15.825-15.825h-48.015    c-5.496,0-10.598,2.851-13.478,7.532L30.987,200.765c-7.436,12.085-11.373,25.996-11.373,40.186v84.394    c0.114-0.003,0.225-0.017,0.34-0.017L57.593,371.819z"/>
		<path style="fill:#FFCA5E;" d="M362.739,61.44h-29.804c-10.421,0-18.869,8.448-18.869,18.869v43.57h67.543v-43.57    C381.608,69.888,373.16,61.44,362.739,61.44z"/>
		<path style="fill:#FBA557;" d="M357.935,61.44h-25c-10.421,0-18.869,8.448-18.869,18.869v43.57h25v-43.57    C339.066,69.888,347.514,61.44,357.935,61.44z"/>
		<path style="fill:#F9EE80;" d="M394.492,98.109h-93.311c-60.756,0-110.008,49.252-110.008,110.008v0    c0,60.756,49.252,110.008,110.008,110.008h93.311c60.756,0,110.008-49.252,110.008-110.008v0    C504.5,147.361,455.248,98.109,394.492,98.109z"/>
		<path style="fill:#FFCA5E;" d="M221.174,208.117L221.174,208.117c0-60.756,49.252-110.008,110.008-110.008h-30    c-60.756,0-110.008,49.252-110.008,110.008l0,0c0,60.756,49.252,110.008,110.008,110.008h30    C270.426,318.125,221.174,268.873,221.174,208.117z"/>
		<path style="fill:#FD8754;" d="M45.152,240.951H19.614v54.256h25.538c6.871,0,12.441-5.57,12.441-12.441v-29.374    C57.593,246.521,52.023,240.951,45.152,240.951z"/>
		<path style="fill:#D0D0D0;" d="M45.139,325.328H19.954c-6.878,0-12.454,5.576-12.454,12.454v21.583    c0,6.878,5.576,12.454,12.454,12.454h37.639v-34.037C57.593,330.904,52.017,325.328,45.139,325.328z"/>
		<polygon style="fill:#59C2E8;" points="142.063,196.822 142.063,119.95 115.312,119.95 68.012,196.822   "/>
		<path style="fill:#A6C1D8;" d="M128.06,231.152h-18.484c-7.734,0-14.004,6.27-14.004,14.004v0c0,7.734,6.27,14.004,14.004,14.004    h18.484c7.734,0,14.004-6.27,14.004-14.004v0C142.063,237.421,135.794,231.152,128.06,231.152z"/>
		<circle style="fill:#334151;" cx="403.987" cy="398.339" r="52.221"/>
		<circle style="fill:#D5EBF6;" cx="403.987" cy="398.339" r="19.375"/>
		<circle style="fill:#334151;" cx="148.284" cy="398.339" r="52.221"/>
		<circle style="fill:#D5EBF6;" cx="148.284" cy="398.339" r="19.375"/>
		<g>
			<circle style="fill:#485C70;" cx="347.837" cy="217.815" r="17.269"/>
			<path style="fill:#485C70;" d="M379.55,136.659c-9.827-3.845-20.526-5.955-31.713-5.955s-21.886,2.11-31.713,5.955     c-5.989,2.343-8.949,9.096-6.593,15.08l12.779,32.46c7.084-5.396,15.933-8.596,25.527-8.596c9.594,0,18.443,3.2,25.527,8.596     l12.779-32.46C388.499,145.754,385.54,139.002,379.55,136.659z"/>
			<path style="fill:#485C70;" d="M310.101,236.734c-4.3-8.576-5.404-17.922-3.756-26.673l-34.745,3.123     c-6.406,0.576-11.116,6.248-10.526,12.652c0.967,10.508,3.875,21.018,8.889,31.019c5.014,10.001,11.695,18.619,19.536,25.682     c4.779,4.304,12.142,3.923,16.435-0.865l23.291-25.971C321.227,251.787,314.4,245.31,310.101,236.734z"/>
			<path style="fill:#485C70;" d="M424.074,213.185l-34.745-3.123c1.649,8.751,0.544,18.096-3.756,26.673     c-4.3,8.576-11.127,15.053-19.125,18.968l23.291,25.971c4.294,4.788,11.657,5.168,16.435,0.865     c7.842-7.062,14.522-15.68,19.536-25.682c5.014-10.001,7.922-20.511,8.889-31.019     C435.189,219.432,430.479,213.76,424.074,213.185z"/>
		</g>
	</g>
	<g>
		<path d="M68.012,204.322h74.052c4.142,0,7.5-3.358,7.5-7.5v-76.871c0-4.142-3.358-7.5-7.5-7.5h-26.751    c-2.604,0-5.023,1.352-6.388,3.569l-47.301,76.871c-1.424,2.314-1.485,5.218-0.159,7.589    C62.79,202.852,65.295,204.322,68.012,204.322z M119.503,127.451h15.06v61.871H81.433L119.503,127.451z"/>
		<path d="M128.06,223.652h-18.484c-11.857,0-21.503,9.646-21.503,21.504c0,11.857,9.646,21.503,21.503,21.503h18.484    c11.857,0,21.504-9.646,21.504-21.503C149.563,233.298,139.917,223.652,128.06,223.652z M128.06,251.659h-18.484    c-3.586,0-6.503-2.917-6.503-6.503c0-3.586,2.917-6.504,6.503-6.504h18.484c3.586,0,6.504,2.917,6.504,6.504    C134.563,248.742,131.646,251.659,128.06,251.659z"/>
		<path d="M403.987,371.464c-14.819,0-26.875,12.056-26.875,26.875c0,14.819,12.057,26.875,26.875,26.875    s26.875-12.056,26.875-26.875C430.862,383.52,418.806,371.464,403.987,371.464z M403.987,410.214    c-6.548,0-11.875-5.327-11.875-11.875c0-6.548,5.327-11.875,11.875-11.875s11.875,5.327,11.875,11.875    C415.862,404.887,410.535,410.214,403.987,410.214z"/>
		<path d="M148.284,371.464c-14.819,0-26.875,12.056-26.875,26.875c0,14.819,12.056,26.875,26.875,26.875    c14.819,0,26.875-12.056,26.875-26.875C175.159,383.52,163.103,371.464,148.284,371.464z M148.284,410.214    c-6.548,0-11.875-5.327-11.875-11.875c0-6.548,5.327-11.875,11.875-11.875c6.548,0,11.875,5.327,11.875,11.875    C160.159,404.887,154.832,410.214,148.284,410.214z"/>
		<path d="M372.606,217.816c0-13.658-11.111-24.769-24.769-24.769c-13.657,0-24.769,11.111-24.769,24.769    c0,13.657,11.111,24.769,24.769,24.769C361.495,242.584,372.606,231.473,372.606,217.816z M338.068,217.816    c0-5.387,4.382-9.769,9.769-9.769s9.769,4.382,9.769,9.769c0,5.386-4.382,9.769-9.769,9.769S338.068,223.202,338.068,217.816z"/>
		<path d="M320.292,191.422c2.263,0.632,4.692,0.167,6.563-1.257c6.066-4.62,13.321-7.063,20.982-7.063    c7.661,0,14.917,2.442,20.983,7.062c3.751,2.857,9.967,1.449,11.523-3.219c0,0,12.776-32.451,12.779-32.46    c3.83-9.729-1.133-21.015-10.839-24.812c-10.974-4.293-22.563-6.47-34.446-6.47c-11.883,0-23.472,2.177-34.446,6.47    c-9.717,3.801-14.666,15.089-10.839,24.812l12.779,32.46C316.192,189.133,318.028,190.79,320.292,191.422z M316.58,145.849    c0.427-0.978,1.224-1.794,2.277-2.206c9.225-3.609,18.976-5.439,28.98-5.439c10.005,0,19.756,1.83,28.981,5.439    c2.099,0.821,3.175,3.248,2.347,5.349l-9.502,24.137c-6.736-3.307-14.14-5.025-21.825-5.025s-15.089,1.718-21.825,5.025    c0,0-9.484-24.091-9.502-24.137C316.097,147.943,316.157,146.817,316.58,145.849z"/>
		<path d="M258.019,212.564c-3.156,3.789-4.892,8.762-4.414,13.959c2.161,23.488,13.351,45.804,30.875,61.586    c7.754,6.983,20.068,6.342,27.038-1.43c0,0,23.262-25.939,23.291-25.972c3.273-3.65,2.101-9.596-2.287-11.743    c-13.809-6.758-21.654-22.404-18.807-37.515c0.907-4.817-3.169-9.293-8.042-8.859c0,0-34.724,3.122-34.745,3.124    C265.735,206.182,261.169,208.783,258.019,212.564z M298.107,218.332c0.063,7.504,1.845,14.893,5.289,21.763    s8.298,12.719,14.273,17.259c0,0-17.318,19.312-17.319,19.312c-1.513,1.686-4.156,1.808-5.833,0.299    c-14.742-13.27-24.159-32.066-25.976-51.815c-0.199-2.162,1.463-4.291,3.729-4.495L298.107,218.332z"/>
		<path d="M384.155,286.68c6.967,7.769,19.293,8.406,27.038,1.43c17.522-15.783,28.714-38.106,30.875-61.586    c0.957-10.399-6.935-19.876-17.323-20.809c0,0-34.693-3.119-34.745-3.124c-4.87-0.438-8.947,4.056-8.042,8.858    c2.849,15.125-5.006,30.76-18.807,37.515c-4.397,2.152-5.558,8.097-2.287,11.744C360.865,260.708,384.15,286.674,384.155,286.68z     M392.277,240.095c3.444-6.871,5.227-14.259,5.289-21.763c0,0,25.78,2.318,25.836,2.323c2.249,0.202,3.936,2.254,3.729,4.495    c-1.825,19.757-11.234,38.538-25.977,51.816c-1.68,1.512-4.323,1.382-5.832-0.3l-17.318-19.312    C383.979,252.814,388.833,246.966,392.277,240.095z"/>
		<path d="M91.687,379.319c-2.015,5.979-3.124,12.371-3.124,19.02c0,32.93,26.791,59.721,59.721,59.721    c32.93,0,59.721-26.791,59.721-59.721c0-6.649-1.109-13.041-3.124-19.02h36.464c4.142,0,7.5-3.358,7.5-7.5s-3.358-7.5-7.5-7.5    h-43.984c-0.374-0.54-1.233-1.684-1.27-1.732c-4.623-6.183-10.443-11.468-17.063-15.444v-21.518h310.886    c3.906,0,7.084,3.178,7.084,7.085v24.525c0,3.906-3.178,7.084-7.084,7.084h-36.854c-11.033-15.863-29.739-25.701-49.074-25.701    c-19.322,0-38.045,9.843-49.073,25.701h-83.567c-4.143,0-7.5,3.358-7.5,7.5s3.357,7.5,7.5,7.5h76.044    c-2.015,5.979-3.124,12.371-3.124,19.02c0,32.93,26.791,59.721,59.721,59.721s59.721-26.791,59.721-59.721    c0-6.649-1.109-13.041-3.124-19.02h29.331c12.177,0,22.084-9.907,22.084-22.084V332.71c0-12.178-9.907-22.085-22.084-22.085    h-38.035C487.726,290.477,512,252.082,512,208.117c0-21.812-6.027-43.113-17.43-61.602c-2.174-3.525-6.795-4.62-10.321-2.447    c-3.526,2.175-4.621,6.795-2.447,10.321c9.942,16.12,15.197,34.699,15.197,53.728c0,56.523-45.985,102.508-102.508,102.508    h-93.311c-56.522,0-102.508-45.985-102.508-102.508s45.985-102.508,102.508-102.508h93.311c25.804,0,50.462,9.625,69.432,27.103    c3.046,2.807,7.791,2.613,10.598-0.434s2.612-7.791-0.434-10.598c-21.748-20.037-50.016-31.072-79.596-31.072h-5.384v-10.3    c0-14.54-11.829-26.369-26.369-26.369h-29.805c-14.54,0-26.369,11.829-26.369,26.369v10.3h-5.384    c-64.794,0-117.508,52.714-117.508,117.508c0,43.965,24.274,82.36,60.12,102.508h-64.764V106.31    c0-12.862-10.463-23.326-23.325-23.326h-48.015c-8.04,0-15.652,4.253-19.866,11.101L24.6,196.835    c-8.168,13.274-12.485,28.529-12.485,44.116v78.486C4.999,322.49,0,329.562,0,337.782v21.583c0,11.003,8.951,19.955,19.954,19.955    L91.687,379.319z M403.987,443.06c-24.659,0-44.721-20.061-44.721-44.721c0-23.942,20.776-44.721,44.722-44.721    c24.132,0,44.72,20.447,44.72,44.721C448.708,422.998,428.646,443.06,403.987,443.06z M321.565,80.309    c0-6.269,5.101-11.369,11.369-11.369h29.805c6.269,0,11.369,5.1,11.369,11.369v10.3h-52.543V80.309z M148.284,443.06    c-24.659,0-44.721-20.061-44.721-44.721c0-23.938,20.775-44.721,44.721-44.721c24.232,0,44.721,20.51,44.721,44.721    C193.005,422.998,172.943,443.06,148.284,443.06z M100.599,101.947c1.504-2.444,4.221-3.962,7.091-3.962h48.015    c4.591,0,8.325,3.735,8.325,8.326v234.405c-2.176-0.596-4.385-1.057-6.621-1.4c-0.032-0.005-0.063-0.009-0.095-0.014    c-22.225-3.419-45.284,6.583-58.104,25.019H65.093v-26.537c0-11.002-8.951-19.954-19.954-19.954H27.114v-15.122h18.038    c10.995,0,19.94-8.945,19.94-19.94v-29.374c0-10.996-8.945-19.941-19.94-19.941H27.526c1.107-10.167,4.453-19.987,9.849-28.755    L100.599,101.947z M27.114,248.451h18.038c2.724,0,4.94,2.216,4.94,4.941v29.374c0,2.725-2.216,4.94-4.94,4.94H27.114V248.451z     M50.093,364.32H19.954c-2.731,0-4.954-2.223-4.954-4.955v-21.583c0-2.683,2.146-4.862,4.811-4.939    c0.109-0.003,0.217-0.008,0.331-0.015h24.998c2.731,0,4.954,2.222,4.954,4.954V364.32z"/>
	</g>
</g>















</svg>
